# xmcd
#
# Track frame offsets:
#	187
#	5752
#	13062
#	21882
#	25995
#	32367
#	37470
#	43300
#	52840
#	60760
#	65142
#	73890
#	81895
#	86912
#	91805
#	96927
#	103317
#	109512
#	118715
#	122715
#	127705
#	131600
#	141470
#	150040
#	163395
#	172660
#
# Disc length: 2731 seconds
#
# Revision: 1
# Processed by: cddbd v1.5PL3 Copyright (c) Steve Scherf et al.
# Submitted via: CDex 1.50Beta5
#
DISCID=610aa91a
DTITLE=湯山昭 - お菓子の世界
DYEAR=1900
DGENRE=
TTITLE0=序曲お菓子のベルトコンベア−
TTITLE1=シュークリーム
TTITLE2=バウムクーヘン
TTITLE3=柿の種
TTITLE4=ショートケーキ
TTITLE5=ホットケーキ
TTITLE6=間奏曲1 むしば
TTITLE7=ウエハース
TTITLE8=ドロップス
TTITLE9=チョコバー
TTITLE10=バースデーケーキ
TTITLE11=クッキー
TTITLE12=間奏曲2 どうしてふとるのかしら
TTITLE13=ヌガー
TTITLE14=ソフトクリーム
TTITLE15=ボンボン
TTITLE16=鬼あられ
TTITLE17=マロングラッセ
TTITLE18=間奏曲3 くいしんぼう
TTITLE19=金平糖
TTITLE20=プリン
TTITLE21=ポップコーン
TTITLE22=チューインガム
TTITLE23=甘納豆
TTITLE24=ドーナッツ
TTITLE25=終曲 お菓子の行進曲
EXTD=
EXTT0=
EXTT1=
EXTT2=
EXTT3=
EXTT4=
EXTT5=
EXTT6=
EXTT7=
EXTT8=
EXTT9=
EXTT10=
EXTT11=
EXTT12=
EXTT13=
EXTT14=
EXTT15=
EXTT16=
EXTT17=
EXTT18=
EXTT19=
EXTT20=
EXTT21=
EXTT22=
EXTT23=
EXTT24=
EXTT25=
PLAYORDER=
